<?xml version="1.0" encoding="UTF-8"?>
<svg version="1.1" xmlns="http://www.w3.org/2000/svg" width="225" height="225">
<path d="M0 0 C74.25 0 148.5 0 225 0 C225 74.25 225 148.5 225 225 C150.75 225 76.5 225 0 225 C0 150.75 0 76.5 0 0 Z " fill="#23A218" transform="translate(0,0)"/>
<path d="M0 0 C74.25 0 148.5 0 225 0 C225 74.25 225 148.5 225 225 C193.65 225 162.3 225 130 225 C130 224.67 130 224.34 130 224 C131.2281543 223.91959473 132.45630859 223.83918945 133.72167969 223.75634766 C138.38141512 223.45036246 143.04084049 223.13984768 147.70019531 222.828125 C149.6975122 222.69509845 151.6949059 222.5632189 153.69238281 222.43261719 C163.98976107 221.75856927 174.25557527 221.01166936 184.515625 219.8984375 C192.71536248 219.01255464 200.75467842 218.77512759 209 219 C208.72905518 217.75186523 208.72905518 217.75186523 208.45263672 216.47851562 C190.81208159 134.95084579 190.81208159 134.95084579 190.8671875 99.0390625 C190.86651177 97.63569115 190.86553952 96.23231992 190.86428833 94.82894897 C190.86282692 91.91280992 190.86491719 88.99670182 190.86962891 86.08056641 C190.87535731 82.35526411 190.87201777 78.6300334 190.86605644 74.90473366 C190.86243568 72.01703353 190.86359584 69.12935028 190.86618423 66.24164963 C190.86684766 64.86781175 190.86604568 63.4939723 190.86370468 62.12013626 C190.86114965 60.20199872 190.86573786 58.28385573 190.87060547 56.36572266 C190.87140106 55.27828766 190.87219666 54.19085266 190.87301636 53.07046509 C191.00116537 49.97182127 191.42443429 47.04465296 192 44 C190.52853516 44.19916016 190.52853516 44.19916016 189.02734375 44.40234375 C174.34300006 46.3443482 159.80593184 47.175103 145 47 C144.63648438 45.98421875 144.27296875 44.9684375 143.8984375 43.921875 C138.22154538 27.12011255 138.22154538 27.12011255 128 13 C124.26665704 11.95080189 120.67528762 11.86540301 116.8125 11.875 C115.76707031 11.87242188 114.72164063 11.86984375 113.64453125 11.8671875 C111.02251139 11.82133277 111.02251139 11.82133277 109 13 C109.66386719 13.24234375 110.32773438 13.4846875 111.01171875 13.734375 C111.89472656 14.06953125 112.77773437 14.4046875 113.6875 14.75 C114.55761719 15.07484375 115.42773438 15.3996875 116.32421875 15.734375 C124.34542639 19.52834766 126.59488955 25.07941699 130 33 C130.99 37.95 131.98 42.9 133 48 C113.86 48 94.72 48 75 48 C76.18457512 34.96967365 76.18457512 34.96967365 78.125 28.9375 C78.34164307 28.25776123 78.55828613 27.57802246 78.78149414 26.87768555 C81.73505209 18.18413584 86.58693613 11.42419308 94 6 C86.14824067 7.00456333 78.68052654 10.3514321 73.625 16.625 C67.50591433 25.93588541 64.96837874 36.18191846 63 47 C62.16597656 46.88398437 61.33195312 46.76796875 60.47265625 46.6484375 C53.52440732 46.03874179 53.52440732 46.03874179 47.4140625 48.91015625 C45.11939214 51.5148084 43.07891491 54.21984973 41 57 C40.35939133 57.61703796 39.71878265 58.23407593 39.0587616 58.86981201 C34.04020245 63.81725762 32.08827842 67.21640376 31.99246216 74.28242493 C32.01815277 75.28879501 32.04384338 76.2951651 32.0703125 77.33203125 C32.06417938 78.40386154 32.05804626 79.47569183 32.05172729 80.58000183 C32.03887912 83.99205889 32.07951347 87.40076836 32.125 90.8125 C32.14304126 95.27738873 32.14020981 99.74211906 32.1328125 104.20703125 C32.13357788 105.29727097 32.13434326 106.38751068 32.13513184 107.51078796 C32.0982542 117.433339 31.26559219 127.16557704 30 137 C29.78077881 138.75751587 29.78077881 138.75751587 29.55712891 140.55053711 C29.1578569 143.56145998 28.71786331 146.56152323 28.25 149.5625 C28.08443604 150.63185791 27.91887207 151.70121582 27.74829102 152.80297852 C25.25006755 168.31630396 21.85812161 183.72734222 17.55297852 198.84008789 C16.91732678 200.95132247 16.91732678 200.95132247 17 203 C41.22849124 213.99403797 65.29385567 221.10679476 92 223 C92.75893555 223.05494629 93.51787109 223.10989258 94.29980469 223.16650391 C98.86457768 223.48822076 103.43006144 223.76340918 108 224 C108 224.33 108 224.66 108 225 C72.36 225 36.72 225 0 225 C0 150.75 0 76.5 0 0 Z " fill="#FDFEFD" transform="translate(0,0)"/>
<path d="M0 0 C33.33 0 66.66 0 101 0 C101 74.25 101 148.5 101 225 C69.65 225 38.3 225 6 225 C6 224.67 6 224.34 6 224 C7.2281543 223.91959473 8.45630859 223.83918945 9.72167969 223.75634766 C14.38141512 223.45036246 19.04084049 223.13984768 23.70019531 222.828125 C25.6975122 222.69509845 27.6949059 222.5632189 29.69238281 222.43261719 C39.98976107 221.75856927 50.25557527 221.01166936 60.515625 219.8984375 C68.71536248 219.01255464 76.75467842 218.77512759 85 219 C84.72905518 217.75186523 84.72905518 217.75186523 84.45263672 216.47851562 C66.81208159 134.95084579 66.81208159 134.95084579 66.8671875 99.0390625 C66.86651177 97.63569115 66.86553952 96.23231992 66.86428833 94.82894897 C66.86282692 91.91280992 66.86491719 88.99670182 66.86962891 86.08056641 C66.87535731 82.35526411 66.87201777 78.6300334 66.86605644 74.90473366 C66.86243568 72.01703353 66.86359584 69.12935028 66.86618423 66.24164963 C66.86684766 64.86781175 66.86604568 63.4939723 66.86370468 62.12013626 C66.86114965 60.20199872 66.86573786 58.28385573 66.87060547 56.36572266 C66.87140106 55.27828766 66.87219666 54.19085266 66.87301636 53.07046509 C67.00116537 49.97182127 67.42443429 47.04465296 68 44 C67.01902344 44.144375 66.03804688 44.28875 65.02734375 44.4375 C55.6065832 45.75612442 46.51375205 46.24604531 37 46 C34.81351476 40.74313123 32.83392098 35.51493311 31.1875 30.0625 C28.00108856 20.41647626 22.62262543 11.64558302 14 6 C11.46644693 4.78481165 8.94665955 3.75670663 6.296875 2.82421875 C4 2 4 2 0 0 Z " fill="#FDFEFD" transform="translate(124,0)"/>
<path d="M0 0 C0.0471712 16.67526084 0.08220594 33.35049933 0.10362434 50.0258112 C0.11384311 57.77219463 0.12771815 65.51853612 0.15087891 73.26489258 C0.17110647 80.03356426 0.18378422 86.8022055 0.18817699 93.57090658 C0.19073596 97.13947832 0.19654116 100.70796318 0.21146011 104.27650642 C0.27176346 119.30277476 0.02538577 134.24970973 -0.94970703 149.24389648 C-0.99292076 149.91499958 -1.03613449 150.58610268 -1.08065772 151.27754223 C-1.85408124 163.02015632 -1.85408124 163.02015632 -3 167 C-2.34 167.33 -1.68 167.66 -1 168 C-8.4332958 167.16160562 -14.54507261 164.54249363 -21.375 161.625 C-23.17517578 160.8825 -23.17517578 160.8825 -25.01171875 160.125 C-26.14996094 159.64289063 -27.28820312 159.16078125 -28.4609375 158.6640625 C-29.50040527 158.22529785 -30.53987305 157.7865332 -31.61083984 157.33447266 C-34 156 -34 156 -35 153 C-34.55029297 150.53344727 -34.55029297 150.53344727 -33.7421875 147.56640625 C-33.30169067 145.90097778 -33.30169067 145.90097778 -32.85229492 144.2019043 C-32.5297876 143.00090088 -32.20728027 141.79989746 -31.875 140.5625 C-26.89374537 121.36690174 -22.99011055 101.74968403 -21 82 C-20.90662354 81.20480957 -20.81324707 80.40961914 -20.71704102 79.59033203 C-20.07430665 73.14143817 -19.99542922 66.84833131 -20.16482544 60.37489319 C-20.27654955 55.97152437 -20.32649404 51.5680263 -20.3762207 47.16357422 C-20.41695658 44.89437494 -20.48452306 42.62549333 -20.5793457 40.35791016 C-21.04119002 28.70457318 -21.30395049 19.32472098 -13.27296448 10.21343994 C-3.16122318 0 -3.16122318 0 0 0 Z " fill="#018001" transform="translate(51,48)"/>
<path d="M0 0 C12.58497792 10.58282234 17.15462929 24.02618095 21.75 39.3125 C21.75 39.9725 21.75 40.6325 21.75 41.3125 C16.47 41.3125 11.19 41.3125 5.75 41.3125 C4.88375 38.92 4.0175 36.5275 3.125 34.0625 C-2.10345251 19.50804536 -2.10345251 19.50804536 -11.25 7.3125 C-14.98334296 6.26330189 -18.57471238 6.17790301 -22.4375 6.1875 C-23.48292969 6.18492188 -24.52835938 6.18234375 -25.60546875 6.1796875 C-28.22748861 6.13383277 -28.22748861 6.13383277 -30.25 7.3125 C-29.58613281 7.55484375 -28.92226562 7.7971875 -28.23828125 8.046875 C-27.35527344 8.38203125 -26.47226563 8.7171875 -25.5625 9.0625 C-24.69238281 9.38734375 -23.82226562 9.7121875 -22.92578125 10.046875 C-14.90457361 13.84084766 -12.65511045 19.39191699 -9.25 27.3125 C-8.26 32.2625 -7.27 37.2125 -6.25 42.3125 C-25.39 42.3125 -44.53 42.3125 -64.25 42.3125 C-63.06542488 29.28217365 -63.06542488 29.28217365 -61.125 23.25 C-60.90835693 22.57026123 -60.69171387 21.89052246 -60.46850586 21.19018555 C-57.55174647 12.60494931 -52.7270055 5.52901547 -45.25 0.3125 C-44.59 0.3125 -43.93 0.3125 -43.25 0.3125 C-43.25 -0.3475 -43.25 -1.0075 -43.25 -1.6875 C-27.9879178 -6.88310245 -14.72368991 -7.64499284 0 0 Z " fill="#44AA03" transform="translate(139.25,5.6875)"/>
<path d="M0 0 C7.74549269 2.40110274 12.64891446 6.26980572 16.625 13.375 C19 19 19 19 22 34 C7.15 34 -7.7 34 -23 34 C-19.94425087 9.55400697 -19.94425087 9.55400697 -12 3 C-11.401875 2.401875 -10.80375 1.80375 -10.1875 1.1875 C-6.8120642 -0.64487943 -3.69250046 -0.5850793 0 0 Z " fill="#FCFDFC" transform="translate(111,14)"/>
<path d="M0 0 C0 0.66 0 1.32 0 2 C-1.22795623 3.13170313 -2.50851257 4.20681006 -3.8125 5.25 C-8.76266248 9.46550939 -11.04853706 13.53005198 -12 20 C-12.763125 19.484375 -13.52625 18.96875 -14.3125 18.4375 C-15.199375 17.963125 -16.08625 17.48875 -17 17 C-20.02520387 17.67362203 -20.02520387 17.67362203 -21.16015625 19.6875 C-24.16907682 27.97252781 -22.02068553 36.56174656 -18.4453125 44.25390625 C-16.48078941 47.98650012 -14.35545566 51.50046587 -12 55 C-13.55759343 55.53532823 -15.12138045 56.05265378 -16.6875 56.5625 C-17.55761719 56.85253906 -18.42773438 57.14257812 -19.32421875 57.44140625 C-22.34258212 58.07151714 -24.10420612 58.06015505 -27 57 C-33.53326912 47.97974626 -33.72799833 35.6063757 -33 25 C-31.89281227 18.83369172 -29.78890925 13.96477763 -26 9 C-26.66 7.68 -27.32 6.36 -28 5 C-20.25292406 0.33453871 -8.95164318 -4.47582159 0 0 Z " fill="#008000" transform="translate(109,99)"/>
<path d="M0 0 C4.66209202 1.72312209 8.03332953 4.04444161 12 7 C11.54468181 15.65104569 5.16472134 24.18988652 -1 30 C-8.8552658 36.2893468 -14.91015999 39.34792552 -25 39 C-25 40.65 -25 42.3 -25 44 C-32.75898689 43.40315485 -38.85181923 39.60367021 -44 33.9375 C-46.22661562 31.33462758 -47.39677645 29.38559219 -48 26 C-47.09378906 26.03480469 -46.18757813 26.06960937 -45.25390625 26.10546875 C-37.75789787 26.27204671 -31.94091903 25.87210443 -25 23 C-25 25.31 -25 27.62 -25 30 C-17.6827972 28.76420575 -11.93351217 27.06947221 -7.4375 20.75 C-3.71336093 14.41412704 -2.00210014 7.02012985 0 0 Z " fill="#008000" transform="translate(150,134)"/>
<path d="M0 0 C14.15365943 -0.74384196 24.75501207 2.15060568 36 11 C39.47448748 14.65196621 42.00347768 18.00631595 43 23 C44.65 22.34 46.3 21.68 48 21 C48.3735804 30.7269268 48.49162063 38.8154724 42.9375 47.0625 C42.298125 47.701875 41.65875 48.34125 41 49 C40.34 49 39.68 49 39 49 C38.85304687 48.3709375 38.70609375 47.741875 38.5546875 47.09375 C37.03713325 41.30262344 35.11211529 37.24258691 31.20703125 32.69140625 C30 31 30 31 30 28 C31.32 27.67 32.64 27.34 34 27 C32.14699538 21.92861893 30.7605856 18.92126844 26 16 C19.89770178 13.79930328 14.00947252 13.57633681 7.5625 13.375 C6.54478516 13.33632812 5.52707031 13.29765625 4.47851562 13.2578125 C1.98585064 13.16419128 -0.5068195 13.07846007 -3 13 C-2.69128878 11.20767663 -2.37790936 9.41615679 -2.0625 7.625 C-1.88847656 6.62726563 -1.71445313 5.62953125 -1.53515625 4.6015625 C-1 2 -1 2 0 0 Z " fill="#008000" transform="translate(114,81)"/>
<path d="M0 0 C-2.05478187 2.1308849 -4.02775554 4.01992706 -6.4375 5.75 C-16.24127979 14.35819689 -18.87819941 29.65497838 -21 42 C-24.96 42 -28.92 42 -33 42 C-32.29085225 29.94448818 -29.06037883 16.92603758 -20.15234375 8.1875 C-14.6385275 3.80275547 -7.30876269 -0.94306615 0 0 Z " fill="#028002" transform="translate(96,5)"/>
<path d="M0 0 C9.62671798 5.59692906 13.66357541 18.18612221 16.85546875 28.2421875 C17.6875 31.5625 17.6875 31.5625 17.6875 35.5625 C12.2425 36.0575 12.2425 36.0575 6.6875 36.5625 C6.39617187 35.37914062 6.10484375 34.19578125 5.8046875 32.9765625 C2.58726619 18.51318261 2.58726619 18.51318261 -6.19140625 7.1484375 C-10.61870082 4.73985063 -15.41155558 3.61270238 -20.3125 2.5625 C-13.99068373 -1.65204418 -7.39181307 -0.9762772 0 0 Z " fill="#058104" transform="translate(126.3125,11.4375)"/>
<path d="M0 0 C6.34146014 1.23735808 9.36860075 4.9825705 13 10 C16.89278423 16.95140041 19 26.06422069 19 34 C18.01 34 17.02 34 16 34 C15.63648438 32.98421875 15.27296875 31.9684375 14.8984375 30.921875 C10.96571253 20.09037392 6.79417466 9.40731876 0 0 Z " fill="#F0F7EF" transform="translate(129,13)"/>
<path d="M0 0 C0 3 0 3 -1.53125 4.82421875 C-2.1809375 5.43910156 -2.830625 6.05398437 -3.5 6.6875 C-4.1496875 7.31011719 -4.799375 7.93273437 -5.46875 8.57421875 C-5.9740625 9.04472656 -6.479375 9.51523437 -7 10 C-7.66 9.67 -8.32 9.34 -9 9 C-8.06725891 7.87105124 -7.12859878 6.74699124 -6.1875 5.625 C-5.66542969 4.99851562 -5.14335938 4.37203125 -4.60546875 3.7265625 C-3 2 -3 2 0 0 Z " fill="#148414" transform="translate(80,10)"/>
</svg>
